<?xml version="1.0" standalone="no"?>
<!DOCTYPE svg PUBLIC "-//W3C//DTD SVG 20010904//EN"
 "http://www.w3.org/TR/2001/REC-SVG-20010904/DTD/svg10.dtd">
<svg version="1.0" xmlns="http://www.w3.org/2000/svg"
 width="920.000000pt" height="932.000000pt" viewBox="0 0 920.000000 932.000000"
 preserveAspectRatio="xMidYMid meet">

<g transform="translate(0.000000,932.000000) scale(0.100000,-0.100000)"
fill="#000000" stroke="none">
<path d="M3785 9300 c-234 -14 -552 -65 -762 -121 -691 -184 -1316 -543 -1822
-1048 -1089 -1087 -1475 -2696 -1000 -4171 332 -1029 1065 -1889 2029 -2379
405 -207 902 -355 1360 -406 516 -58 1059 -9 1564 141 288 85 667 253 929 412
l118 72 466 -473 c941 -952 1099 -1109 1158 -1154 77 -59 198 -117 300 -144
123 -33 319 -31 438 5 306 92 526 316 608 621 31 114 31 326 0 440 -24 91 -75
203 -123 272 -59 87 -35 62 -1320 1358 l-307 310 60 100 c264 435 460 982 538
1495 63 424 52 981 -30 1384 -138 688 -437 1318 -876 1846 -107 128 -376 399
-498 502 -718 600 -1568 920 -2498 942 -111 2 -260 1 -332 -4z m566 -1175
c217 -25 479 -88 678 -161 134 -50 396 -180 521 -259 516 -326 925 -816 1149
-1377 93 -234 144 -424 188 -708 22 -146 25 -603 5 -750 -68 -476 -221 -891
-467 -1260 -113 -169 -196 -271 -345 -424 -356 -366 -788 -624 -1283 -765
-431 -124 -985 -134 -1434 -26 -311 75 -622 210 -893 389 -730 482 -1193 1235
-1302 2116 -16 137 -16 526 0 660 102 815 510 1528 1149 2009 406 305 879 494
1393 556 148 18 488 18 641 0z"/>
</g>
</svg>
